# xmcd
#
# Track frame offsets: 
#        150
#        16666
#        36972
#        59192
#        74841
#        91293
#        111845
#        126718
#        147028
#        161907
#
# Disc length: 2457 seconds
#
# Revision: 1
# Processed by: cddbd v1.5.2PL0 Copyright (c) Steve Scherf et al.
# Submitted via: ExactAudioCopy v1.0b4
#
DISCID=9a09970a
DTITLE=Coast Road Drive - Delicious and Refreshing 
DYEAR=1974
DGENRE=Rock
TTITLE0=Sail Away
TTITLE1=Coal Black Night
TTITLE2=It's All So Easy
TTITLE3=Take My Time
TTITLE4=Jason
TTITLE5=This Time around
TTITLE6=Hard to Handle
TTITLE7=If You Ain't Got the Key
TTITLE8=Keep On
TTITLE9=Over the Mountain
EXTD=
EXTT0=
EXTT1=
EXTT2=
EXTT3=
EXTT4=
EXTT5=
EXTT6=
EXTT7=
EXTT8=
EXTT9=
PLAYORDER=
